<svg height="490pt" viewBox="0 0 490.68566 490" width="490pt" xmlns="http://www.w3.org/2000/svg"><path d="m437.34375 491.007812c-2.773438 0-5.503906-1.085937-7.554688-3.113281l-42.664062-42.667969c-1.984375-2.003906-3.117188-4.714843-3.117188-7.550781v-42.667969c0-5.886718 4.78125-10.664062 10.667969-10.664062h42.667969c2.835938 0 5.546875 1.128906 7.550781 3.113281l42.667969 42.667969c3.050781 3.050781 3.96875 7.636719 2.304688 11.625-1.644532 3.988281-5.546876 6.59375-9.859376 6.59375h-32v32c0 4.308594-2.601562 8.210938-6.589843 9.855469-1.324219.554687-2.710938.808593-4.074219.808593zm0 0" fill="#b0bec5"/><path d="m53.34375 491.007812c-1.367188 0-2.753906-.253906-4.074219-.808593-3.992187-1.644531-6.59375-5.546875-6.59375-9.855469v-32h-32c-4.308593 0-8.214843-2.605469-9.855469-6.59375-1.664062-3.988281-.7460932-8.574219 2.304688-11.625l42.664062-42.667969c2.007813-1.984375 4.714844-3.113281 7.554688-3.113281h42.664062c5.890626 0 10.667969 4.777344 10.667969 10.664062v42.667969c0 2.835938-1.128906 5.546875-3.113281 7.550781l-42.667969 42.667969c-2.046875 2.027344-4.777343 3.113281-7.550781 3.113281zm0 0" fill="#b0bec5"/><path d="m394.675781 405.675781c-2.730469 0-5.460937-1.046875-7.550781-3.113281l-384-384c-4.160156-4.160156-4.160156-10.921875 0-15.082031 4.160156-4.160157 10.921875-4.160157 15.082031 0l384 384c4.160157 4.160156 4.160157 10.921875 0 15.082031-2.070312 2.066406-4.800781 3.113281-7.53125 3.113281zm0 0"/><path d="m437.34375 491.007812c-2.773438 0-5.503906-1.085937-7.554688-3.113281l-42.664062-42.667969c-1.984375-2.003906-3.117188-4.714843-3.117188-7.550781v-42.667969c0-5.886718 4.78125-10.664062 10.667969-10.664062h42.667969c2.835938 0 5.546875 1.128906 7.550781 3.113281l42.667969 42.667969c3.050781 3.050781 3.96875 7.636719 2.304688 11.625-1.644532 3.988281-5.546876 6.59375-9.859376 6.59375h-32v32c0 4.308594-2.601562 8.210938-6.589843 9.855469-1.324219.554687-2.710938.808593-4.074219.808593zm-32-57.746093 21.332031 21.332031v-16.917969c0-5.886719 4.777344-10.667969 10.667969-10.667969h16.917969l-21.335938-21.332031h-27.582031zm0 0"/><path d="m10.675781 85.675781c-5.886719 0-10.6679685-4.777343-10.6679685-10.667969v-64c0-5.886718 4.7812495-10.664062 10.6679685-10.664062h64c5.886719 0 10.667969 4.777344 10.667969 10.664062 0 5.890626-4.78125 10.667969-10.667969 10.667969h-53.332031v53.332031c0 5.890626-4.78125 10.667969-10.667969 10.667969zm0 0"/><path d="m96.007812 405.675781c-2.730468 0-5.460937-1.046875-7.550781-3.113281-4.160156-4.160156-4.160156-10.921875 0-15.082031l384-384c4.160157-4.160157 10.921875-4.160157 15.082031 0 4.160157 4.160156 4.160157 10.921875 0 15.082031l-384 384c-2.066406 2.066406-4.800781 3.113281-7.53125 3.113281zm0 0"/><path d="m53.34375 491.007812c-1.367188 0-2.753906-.253906-4.074219-.808593-3.992187-1.644531-6.59375-5.546875-6.59375-9.855469v-32h-32c-4.308593 0-8.214843-2.605469-9.855469-6.59375-1.664062-3.988281-.7460932-8.574219 2.304688-11.625l42.664062-42.667969c2.007813-1.984375 4.714844-3.113281 7.554688-3.113281h42.664062c5.890626 0 10.667969 4.777344 10.667969 10.664062v42.667969c0 2.835938-1.128906 5.546875-3.113281 7.550781l-42.667969 42.667969c-2.046875 2.027344-4.777343 3.113281-7.550781 3.113281zm-16.917969-64h16.917969c5.886719 0 10.664062 4.78125 10.664062 10.667969v16.917969l21.335938-21.332031v-27.585938h-27.585938zm0 0"/><path d="m480.007812 85.675781c-5.886718 0-10.664062-4.777343-10.664062-10.667969v-53.332031h-53.335938c-5.886718 0-10.664062-4.777343-10.664062-10.667969 0-5.886718 4.777344-10.664062 10.664062-10.664062h64c5.890626 0 10.667969 4.777344 10.667969 10.664062v64c0 5.890626-4.777343 10.667969-10.667969 10.667969zm0 0"/><path d="m74.675781 277.675781c-2.730469 0-5.460937-1.046875-7.550781-3.113281-4.160156-4.160156-4.160156-10.921875 0-15.082031l42.664062-42.667969c4.160157-4.160156 10.925782-4.160156 15.085938 0s4.160156 10.921875 0 15.082031l-42.667969 42.667969c-2.070312 2.066406-4.800781 3.113281-7.53125 3.113281zm0 0"/><path d="m117.34375 277.675781c-2.730469 0-5.460938-1.046875-7.554688-3.113281l-42.664062-42.667969c-4.160156-4.160156-4.160156-10.921875 0-15.082031s10.921875-4.160156 15.082031 0l42.667969 42.667969c4.160156 4.160156 4.160156 10.921875 0 15.082031-2.070312 2.066406-4.800781 3.113281-7.53125 3.113281zm0 0"/><path d="m394.675781 277.675781c-2.730469 0-5.460937-1.046875-7.550781-3.113281-4.160156-4.160156-4.160156-10.921875 0-15.082031l42.664062-42.667969c4.160157-4.160156 10.925782-4.160156 15.085938 0s4.160156 10.921875 0 15.082031l-42.667969 42.667969c-2.070312 2.066406-4.800781 3.113281-7.53125 3.113281zm0 0"/><path d="m437.34375 277.675781c-2.730469 0-5.460938-1.046875-7.554688-3.113281l-42.664062-42.667969c-4.160156-4.160156-4.160156-10.921875 0-15.082031s10.921875-4.160156 15.082031 0l42.667969 42.667969c4.160156 4.160156 4.160156 10.921875 0 15.082031-2.070312 2.066406-4.800781 3.113281-7.53125 3.113281zm0 0"/></svg>